# xmcd
# Track frame offsets:
# 150
# 10964
# 23062
# 38758
# 59834
# 74072
# 90785
# 110673
# 129198
# 146365
# 158447
# 175469
# 189223
# 203758
# 216676
# 233850
#
# Disc length: 3348 seconds
# Revision: 0
# Processed by: cddbd v1.5.1PL0 Copyright (c) Steve Scherf et al.
# Submitted via: VisiTrax 2.9.6.190 - For more info visit www.synapsa.com
#
DISCID=dd0d1210
DTITLE=Various Artist - Counrty love songs vol. 2
DYEAR=2003
DGENRE=Country
TTITLE0=Conway Twitty - It's only make believe
TTITLE1=Sonny James - Young love
TTITLE2=Bellamy Brothers - If I said you had a beautiful body
TTITLE3=Amy Grant/Vince Gill - House of love
TTITLE4=Lynn Anderson - Rose garden
TTITLE5=Waylon Jennings - Luckenbach, Texas
TTITLE6=Alabama - Angels among us
TTITLE7=Ray Price - For the good times
TTITLE8=Willie Nelson - Always on my mind
TTITLE9=Crystal Gayle - Don't make your brown eyes blue
TTITLE10=Anne Murray - You needed me
TTITLE11=Patsy Cline - I fall to peices
TTITLE12=Charlie Rich - Behind closed doors
TTITLE13=Tammy Wynette - Stand by your man
TTITLE14=Kenny Rodgers - You decorated my love
TTITLE15=Reba McEntire - Love will find it's way to you
EXTD=KareokeBay CD
EXTT0=
EXTT1=
EXTT2=
EXTT3=
EXTT4=
EXTT5=
EXTT6=
EXTT7=
EXTT8=
EXTT9=
EXTT10=
EXTT11=
EXTT12=
EXTT13=
EXTT14=
EXTT15=
PLAYORDER=
